<?xml version="1.0" standalone="no"?>
<!DOCTYPE svg PUBLIC "-//W3C//DTD SVG 20010904//EN"
 "http://www.w3.org/TR/2001/REC-SVG-20010904/DTD/svg10.dtd">
<svg version="1.0" xmlns="http://www.w3.org/2000/svg"
 width="234.000000pt" height="216.000000pt" viewBox="0 0 234.000000 216.000000"
 preserveAspectRatio="xMidYMid meet">
<metadata>
Created by potrace 1.10, written by Peter Selinger 2001-2011
</metadata>
<g transform="translate(0.000000,216.000000) scale(0.100000,-0.100000)"
fill="#000000" stroke="none">
<path d="M1914 2138 c16 -56 17 -77 7 -114 -19 -69 -23 -71 -78 -42 -73 40
-198 75 -308 88 -290 33 -601 -105 -691 -308 -31 -71 -48 -160 -42 -228 4 -47
10 -62 32 -81 15 -13 40 -23 55 -23 28 0 28 0 34 -80 3 -45 11 -90 19 -102 13
-19 12 -23 -9 -44 -18 -19 -23 -34 -23 -79 l0 -55 -53 0 -53 0 4 34 c3 28 -2
41 -30 72 -36 38 -69 49 -188 60 -25 2 -60 6 -78 10 -23 4 -40 1 -60 -12 -15
-10 -31 -17 -36 -16 -5 2 -22 -2 -37 -8 -33 -14 -53 -57 -47 -105 l4 -35 -141
0 c-99 0 -146 -4 -159 -13 -16 -12 -18 -47 -23 -423 l-6 -411 25 -6 c23 -6
232 -27 270 -27 14 0 15 -5 5 -35 l-11 -36 -130 2 c-123 1 -131 0 -148 -21
-22 -27 -23 -50 -4 -76 14 -18 29 -19 378 -19 569 1 808 6 808 16 0 5 28 9 63
8 46 -1 56 -3 37 -9 -15 -5 43 -8 140 -8 91 0 154 3 140 7 -14 4 140 7 343 7
331 0 394 -3 355 -19 -7 -3 -1 -6 15 -6 21 -1 30 5 37 25 11 28 -1 54 -26 54
-7 0 -16 9 -19 20 -6 19 -15 20 -224 20 l-217 0 -31 108 c-27 92 -30 109 -18
121 13 13 18 12 37 -7 56 -52 149 -67 206 -32 42 26 64 63 93 160 22 73 26 79
55 85 17 3 39 14 49 25 18 20 20 34 15 140 -2 30 0 67 5 82 4 16 4 39 1 53 -7
26 -51 55 -84 55 -11 0 -23 7 -26 16 -4 12 -14 14 -36 9 -19 -4 -30 -3 -30 4
0 6 14 11 30 11 63 0 114 45 140 123 16 51 6 100 -28 134 l-28 27 43 44 c119
122 106 354 -29 508 -37 42 -123 94 -155 94 -13 0 -23 2 -23 4 0 2 18 22 40
44 41 40 48 68 30 103 -16 30 -44 23 -84 -21 -35 -39 -47 -39 -25 2 15 28 -3
90 -37 123 -31 31 -48 32 -40 3z m44 -98 c-3 -17 -1 -33 4 -36 11 -7 -1 -54
-23 -86 -23 -32 -24 -52 -3 -44 23 9 95 -5 87 -17 -3 -5 -2 -7 4 -4 13 8 93
-32 100 -50 3 -8 9 -10 12 -5 3 5 15 0 26 -11 11 -11 14 -17 8 -13 -9 5 -11 2
-7 -8 3 -8 11 -13 18 -10 19 7 68 -102 73 -165 3 -30 12 -65 20 -77 12 -18 12
-30 3 -66 -6 -24 -19 -49 -28 -56 -14 -11 -15 -14 -3 -21 11 -7 5 -20 -29 -60
-24 -28 -46 -51 -49 -51 -4 0 -27 20 -51 45 -40 41 -44 49 -41 89 2 44 2 45
-33 52 -20 3 -39 10 -42 15 -3 5 -11 9 -17 9 -7 0 -6 -4 3 -10 12 -8 9 -10
-11 -10 -14 0 -34 9 -45 21 -16 17 -16 22 -4 29 13 8 13 10 -1 10 -9 0 -19 9
-22 20 -3 12 -11 18 -19 15 -9 -4 -19 7 -29 30 -9 19 -13 32 -8 29 8 -5 6 12
-10 96 -4 19 -4 53 0 75 9 50 5 55 -21 23 -49 -63 -265 -175 -356 -186 -39 -4
-42 -3 -100 64 -61 71 -84 93 -96 94 -21 1 -71 -141 -62 -175 4 -15 1 -22 -10
-22 -13 0 -13 3 -3 16 9 12 9 13 -1 7 -8 -5 -21 8 -40 38 -15 25 -29 46 -32
46 -3 0 -13 -37 -22 -81 -12 -55 -24 -88 -38 -102 -40 -36 -169 -62 -185 -37
-4 6 -10 8 -15 5 -30 -18 -50 103 -30 186 51 218 246 363 535 399 76 9 105 9
188 -6 54 -9 94 -20 88 -23 -5 -3 10 -6 33 -7 39 -1 177 -57 184 -75 2 -4 10
-5 19 -2 12 5 14 3 8 -8 -7 -11 -5 -11 10 1 22 18 54 87 55 118 0 12 3 22 6
22 4 0 4 -14 2 -30z m99 -49 c1 -11 -5 -25 -13 -32 -8 -6 -14 -20 -14 -31 0
-16 -5 -19 -21 -15 -17 5 -18 3 -8 -9 10 -13 8 -15 -14 -12 -14 2 -29 7 -33
10 -6 7 83 108 95 108 4 0 7 -9 8 -19z m-246 -295 c-1 -24 5 -62 13 -85 13
-39 13 -42 -2 -34 -10 4 -42 8 -72 8 -44 0 -63 -6 -97 -29 -60 -40 -57 -56 8
-43 37 7 77 7 137 -1 72 -10 89 -16 106 -37 12 -13 32 -29 46 -34 18 -7 20
-10 7 -10 -10 -1 -31 6 -47 14 -16 8 -66 18 -113 21 -124 10 -201 -13 -234
-69 -4 -8 -31 -17 -58 -20 -45 -5 -52 -3 -60 15 -18 38 -59 59 -137 70 -92 13
-194 3 -237 -23 -43 -26 -59 -68 -63 -166 -1 -44 -7 -79 -12 -76 -8 5 0 185
10 229 4 14 18 25 43 33 50 15 70 38 75 90 2 23 8 47 15 52 8 6 8 5 1 -3 -7
-9 1 -23 27 -50 42 -43 63 -48 63 -15 0 31 34 177 41 177 3 0 12 -12 20 -26
23 -44 120 -124 149 -124 41 0 167 38 230 70 69 35 130 85 130 108 0 8 3 12 7
8 4 -3 6 -26 4 -50z m27 -151 c16 -17 15 -17 -32 -11 -27 3 -67 6 -90 6 -41 1
-41 1 -16 16 33 19 116 13 138 -11z m-856 -200 c-5 -138 -24 -124 -36 27 -5
55 0 65 29 67 6 1 9 -35 7 -94z m140 67 c-52 -28 -65 -62 -70 -190 -4 -102 -2
-115 14 -127 18 -14 18 -14 -2 -15 -25 0 -34 23 -34 88 0 27 -5 42 -12 42 -9
0 -10 3 -2 8 6 4 16 41 22 82 9 64 16 79 42 103 17 15 40 27 53 27 19 -1 18
-3 -11 -18z m577 13 c-3 -2 -14 -6 -26 -8 -11 -1 -36 -18 -54 -37 -19 -19 -27
-30 -19 -25 12 7 13 6 3 -6 -19 -23 -24 -208 -6 -242 19 -38 38 -43 154 -42
54 0 99 -4 99 -8 0 -5 6 -5 13 0 6 4 18 8 26 10 8 1 24 11 35 23 19 18 21 32
21 133 0 129 -12 169 -56 187 -16 7 -28 15 -25 17 2 2 20 -3 40 -11 20 -8 36
-11 36 -5 0 5 7 9 15 9 8 0 15 -4 15 -10 0 -5 -5 -10 -10 -10 -7 0 -7 -6 0
-19 13 -26 13 -249 -1 -289 -6 -17 -18 -33 -27 -37 -9 -4 -64 -9 -121 -11 -58
-3 -108 -7 -112 -10 -4 -2 -10 0 -14 5 -3 6 -12 8 -20 4 -8 -3 -15 -1 -15 5 0
6 -8 8 -18 5 -10 -2 -26 5 -37 17 -18 20 -20 37 -20 154 0 126 1 133 25 163
14 17 32 34 40 36 21 6 64 8 59 2z m342 -5 c10 0 19 -11 21 -25 3 -14 4 -25 2
-25 -3 0 -23 14 -47 31 -33 25 -37 30 -17 26 14 -4 32 -7 41 -7z m-650 -17
c19 -11 31 -28 35 -50 3 -18 9 -33 13 -33 6 0 -3 -178 -11 -213 -9 -37 -36
-55 -92 -62 -41 -5 -59 -4 -69 7 -12 11 -5 14 46 15 82 2 91 13 97 121 6 102
-6 170 -37 206 -27 30 -22 33 18 9z m-34 -26 c15 -15 19 -39 21 -142 3 -114 2
-126 -15 -133 -32 -13 -261 -8 -275 6 -17 17 -12 182 8 231 21 52 43 61 151
58 73 -2 96 -6 110 -20z m517 12 c34 -16 37 -28 43 -154 7 -149 12 -145 -158
-142 -102 2 -132 5 -140 17 -14 21 -5 199 12 235 8 16 25 35 39 42 31 16 170
17 204 2z m189 -58 c69 -71 96 -125 29 -59 -60 60 -70 68 -86 68 -9 0 -15 3
-14 8 1 4 -3 17 -10 30 -26 45 14 23 81 -47z m-513 7 c0 -4 -20 -8 -45 -8 -25
0 -45 5 -45 10 0 6 20 9 45 8 25 0 45 -5 45 -10z m515 -108 c-3 -19 -5 -69 -6
-110 0 -63 -2 -71 -11 -52 -9 18 -17 22 -36 17 -21 -5 -23 -3 -17 16 4 12 7
66 7 120 l1 99 33 -28 c29 -23 33 -32 29 -62z m-525 35 c0 -33 -2 -35 -34 -35
-31 0 -34 3 -38 35 -4 35 -4 35 34 35 37 0 38 -1 38 -35z m-1016 -46 c29 -14
47 -57 40 -96 -7 -37 -43 -75 -69 -71 -17 3 -20 9 -17 51 2 33 -2 57 -14 75
-16 24 -16 26 2 39 22 16 26 16 58 2z m1685 -30 c63 -76 -7 -219 -108 -219
-32 0 -33 1 -28 33 3 17 9 75 12 128 l7 95 48 -6 c34 -4 55 -13 69 -31z
m-1562 7 c54 -47 24 -153 -41 -144 -19 3 -21 9 -18 54 1 29 -2 63 -7 77 -17
44 21 52 66 13z m337 -59 l7 -68 -28 3 c-26 3 -28 7 -31 50 -2 37 1 51 18 68
12 12 23 20 24 18 2 -1 6 -34 10 -71z m556 43 c0 -28 -3 -30 -35 -30 -32 0
-35 2 -35 30 0 28 3 30 35 30 32 0 35 -2 35 -30z m-1090 -25 c10 -27 -3 -84
-22 -97 -64 -40 -109 61 -53 118 21 21 28 23 45 14 12 -6 25 -22 30 -35z m300
18 c62 -55 26 -155 -39 -114 -10 6 -14 23 -13 49 2 21 -2 51 -7 66 -9 23 -8
26 9 26 11 0 34 -12 50 -27z m794 -78 c10 -50 39 -73 105 -81 l56 -7 -45 -15
c-50 -16 -256 -22 -304 -9 l-29 8 6 -48 c9 -72 23 -113 59 -173 41 -68 93
-100 163 -100 70 0 115 25 143 80 20 40 22 57 20 151 l-3 106 112 5 c75 4 118
10 130 19 13 11 17 12 21 1 2 -7 12 -21 21 -30 17 -17 41 -65 41 -83 0 -6 -14
-7 -34 -3 -29 5 -39 2 -60 -20 -30 -29 -32 -55 -10 -98 16 -31 16 -32 -17 -60
-57 -47 -132 -87 -200 -104 -93 -24 -270 -16 -364 17 l-70 25 -3 166 -2 166
71 7 c65 7 72 10 90 39 10 17 19 41 19 54 0 19 5 22 39 22 36 0 39 -2 45 -35z
m490 -47 c8 -33 8 -38 -7 -38 -19 0 -40 47 -24 54 21 8 25 6 31 -16z m-1680
-7 c11 -16 45 -19 72 -5 19 10 31 11 38 4 14 -14 52 -13 76 2 15 10 22 10 32
0 15 -15 50 -15 83 0 21 9 31 9 46 0 23 -15 66 -16 74 -2 8 14 440 13 466 0
18 -10 19 -26 19 -425 l0 -415 -270 0 c-157 0 -270 4 -270 9 0 5 -3 16 -6 25
-5 14 2 15 52 11 33 -2 142 -7 243 -10 l184 -5 -8 387 c-4 214 -9 390 -12 393
-7 8 -1087 0 -1095 -8 -4 -4 -8 -170 -10 -369 l-3 -361 35 -6 c19 -3 79 -6
133 -6 71 0 97 -3 97 -12 -1 -32 -15 -35 -125 -27 -60 4 -125 8 -144 8 l-34 1
5 399 c3 219 8 403 12 410 9 13 302 16 310 2z m561 -55 c17 -1 -14 -4 -67 -4
-54 -1 -98 1 -98 6 0 6 94 6 165 -2z m-520 -6 c-30 -8 -30 -8 8 -9 20 0 37 4
37 9 0 6 4 10 10 10 5 0 7 -6 5 -12 -4 -10 22 -13 113 -12 65 0 123 3 130 8 7
4 12 3 12 -3 0 -6 72 -10 195 -11 117 0 195 4 195 9 0 5 -12 12 -27 14 -20 3
-15 4 15 6 l42 1 0 -370 c0 -363 0 -370 -20 -370 -11 0 -20 7 -20 15 0 10 -9
14 -30 12 -16 -1 -30 -6 -30 -12 0 -5 -4 -3 -10 5 -5 8 -12 11 -16 7 -4 -4
-13 -2 -21 4 -7 6 -13 8 -13 3 0 -14 -263 -10 -268 4 -3 9 -49 12 -158 12 -86
0 -153 3 -151 8 3 4 -6 8 -20 8 -13 1 -22 0 -19 -3 3 -3 -1 -12 -9 -19 -14
-15 -128 -19 -198 -8 l-37 7 0 98 c0 85 2 98 16 92 13 -5 14 -17 9 -69 -4 -35
-4 -75 -1 -89 6 -24 9 -25 96 -25 58 0 90 4 90 11 0 6 -18 10 -42 9 -24 -1
-62 -1 -85 -1 l-43 1 0 81 c0 60 3 80 13 76 8 -2 11 -18 9 -45 -3 -37 -1 -42
17 -42 12 0 21 5 21 10 0 6 23 10 52 10 40 0 49 3 40 12 -7 7 -12 21 -12 32
-1 19 -2 18 -13 -4 -11 -24 -47 -38 -47 -19 0 17 -19 9 -25 -11 -3 -11 -11
-20 -16 -20 -6 0 -6 8 1 20 6 11 7 32 4 47 -7 26 -6 27 10 14 13 -11 19 -12
29 -2 9 10 9 11 -4 6 -14 -5 -15 1 -12 39 5 41 3 46 -16 46 -16 0 -21 6 -22
28 0 24 -1 24 -8 7 -5 -11 -7 -23 -4 -27 2 -5 -12 -8 -31 -8 l-35 0 -4 -67 -3
-68 -2 73 c-1 52 1 72 11 72 8 0 7 4 -3 10 -10 6 -11 10 -2 10 9 0 12 31 12
120 0 113 1 120 20 120 16 0 20 7 20 34 0 25 6 38 25 50 26 17 39 21 31 8 -2
-4 23 -7 57 -6 34 1 189 2 345 3 194 1 282 4 282 12 0 7 -107 10 -359 8 -211
-2 -357 -7 -354 -12 3 -5 -5 -6 -18 -3 -13 3 -18 3 -10 0 9 -4 10 -9 2 -13 -5
-4 -11 -21 -13 -39 -2 -31 -13 -39 -34 -24 -14 9 -16 84 -2 75 7 -4 9 3 5 18
l-6 24 132 -2 c84 -1 125 1 112 7 -15 6 -7 8 30 8 43 0 46 -1 20 -8z m1289
-25 c-31 -22 -113 -45 -165 -45 -43 0 -121 22 -141 39 -4 3 50 6 120 6 93 0
136 5 162 16 38 17 54 6 24 -16z m-524 -207 c1 -128 2 -286 3 -351 1 -65 -1
-124 -5 -130 -9 -14 -10 12 -8 128 1 44 1 89 1 100 -6 101 -4 485 1 485 4 0 7
-105 8 -232z m523 142 c6 -24 -18 -51 -38 -43 -9 3 -22 0 -31 -7 -12 -11 -17
-11 -27 0 -9 10 -9 11 0 6 9 -5 11 -2 7 8 -8 20 -6 20 -33 -3 -13 -11 -29 -17
-36 -15 -8 3 -26 -14 -46 -42 l-32 -48 -16 35 c-9 19 -19 36 -23 37 -5 2 -8
12 -8 22 0 10 -8 26 -17 35 -16 16 -14 17 28 12 75 -10 103 -19 118 -36 13
-15 13 -15 8 1 -3 10 -1 20 5 24 7 4 8 3 4 -4 -4 -7 -3 -12 3 -12 5 0 13 5 16
11 4 6 12 8 19 6 6 -3 27 3 46 13 46 23 47 23 53 0z m423 4 c-24 -13 -31 -14
-42 -2 -11 11 -6 13 29 15 l42 2 -29 -15z m-71 -16 c26 -11 57 -54 69 -94 10
-34 -21 -39 -56 -9 -27 23 -48 32 -48 20 0 -2 11 -21 25 -41 26 -39 32 -69 15
-79 -5 -3 -10 -12 -10 -18 1 -7 10 -1 21 12 11 14 18 33 16 43 -3 11 0 18 9
18 10 0 14 -12 14 -40 0 -27 5 -43 15 -46 9 -4 15 -19 15 -40 0 -33 -1 -34
-37 -34 -67 1 -101 46 -113 152 -5 40 -12 88 -16 105 -3 18 -4 40 0 48 6 18
45 20 81 3z m188 -16 c25 -22 21 -50 -12 -83 -37 -36 -81 -40 -81 -6 0 12 -7
35 -15 51 -21 40 -19 44 18 55 37 10 64 5 90 -17z m-633 -51 c0 -6 -4 -13 -10
-16 -5 -3 -10 -16 -10 -28 1 -21 1 -20 17 5 22 35 58 51 84 38 23 -13 24 -24
3 -59 -23 -39 -68 -61 -125 -61 l-49 0 0 43 c1 43 14 69 40 80 24 9 50 8 50
-2z m640 -81 c0 -44 -41 -82 -83 -78 -29 3 -32 6 -35 41 -3 35 -2 37 20 32 13
-3 38 2 58 14 19 10 36 19 38 20 1 0 2 -13 2 -29z m-275 -52 c3 -26 17 -62 29
-81 23 -33 23 -38 12 -101 -7 -36 -16 -69 -20 -73 -12 -13 -41 13 -44 40 -5
38 -84 122 -134 142 l-43 17 52 19 c28 11 71 37 95 58 23 22 44 36 45 33 1 -4
4 -28 8 -54z m-600 -51 l50 -14 -40 -17 c-22 -9 -50 -27 -62 -38 l-23 -21 0
62 c0 50 3 61 13 53 6 -5 35 -17 62 -25z m885 13 c0 -29 -36 -60 -70 -60 -23
0 -30 4 -30 20 0 11 8 23 18 26 9 3 28 11 42 19 35 18 40 18 40 -5z m-462 -51
c13 -5 20 -13 17 -19 -3 -5 0 -7 8 -5 16 7 62 -28 78 -57 9 -16 8 -19 -3 -13
-7 3 -4 -1 6 -9 11 -9 14 -16 7 -16 -7 0 -9 -4 -6 -10 3 -5 2 -10 -4 -10 -12
0 -32 35 -26 44 3 3 2 4 -1 2 -3 -3 -17 8 -31 25 -14 16 -29 29 -35 29 -5 0
11 -24 37 -52 l47 -53 -48 -44 -49 -44 -3 27 c-2 14 -8 26 -13 26 -5 0 -9 6
-9 14 0 8 -11 34 -25 57 -23 42 -25 43 -25 16 0 -15 7 -42 16 -58 8 -17 24
-65 35 -107 11 -42 22 -81 23 -87 2 -5 8 -21 13 -35 28 -68 25 -108 -5 -78 -7
7 -12 8 -12 2 0 -7 -71 -10 -200 -10 -167 1 -202 4 -210 16 -8 13 -10 12 -10
-2 0 -13 -8 -18 -26 -18 -21 0 -25 4 -19 18 18 45 135 374 135 380 0 4 -11 -5
-24 -18 -13 -14 -21 -31 -18 -39 4 -10 1 -12 -8 -6 -8 5 -11 4 -7 -3 4 -5 4
-19 -1 -31 -6 -18 -11 -16 -54 28 -44 45 -46 50 -32 67 14 18 14 17 3 -6 l-12
-25 26 24 c15 13 24 28 20 34 -3 6 -1 7 5 3 7 -4 12 -2 12 3 0 6 3 10 8 10 23
-4 42 3 42 15 0 15 30 26 72 26 20 0 30 -8 45 -37 13 -27 28 -40 56 -49 21 -7
35 -9 32 -5 -2 5 4 11 15 14 13 3 22 17 26 36 10 47 57 57 132 30z m-148 -3
c0 -33 -13 -46 -44 -46 -36 0 -56 15 -56 42 0 15 9 18 50 18 36 0 50 -4 50
-14z m-1467 -79 l42 -4 -47 -1 -48 -2 1 33 c2 29 2 29 6 5 4 -24 10 -27 46
-31z m37 35 c0 -13 -9 -19 -35 -20 -29 -2 -35 1 -35 18 0 16 6 20 35 20 27 0
35 -4 35 -18z m1903 5 c15 3 27 1 27 -3 0 -5 -12 -45 -27 -89 -30 -91 -63
-130 -117 -140 -42 -8 -113 14 -140 44 -16 18 -15 20 23 50 l40 32 25 -26 c21
-21 30 -24 45 -15 22 11 41 66 41 116 0 38 6 45 34 34 12 -4 34 -6 49 -3z
m-786 -159 c-33 -26 -37 -23 -37 32 l0 50 29 -32 30 -33 -22 -17z m40 -25 c-3
-10 -23 -68 -44 -130 l-38 -112 -267 -1 c-225 0 -268 2 -268 14 0 8 -3 21 -6
30 -6 14 22 16 270 16 l276 0 0 79 c0 78 0 79 33 100 39 25 51 26 44 4z m-691
-83 c14 0 47 -97 40 -116 -3 -8 -1 -14 4 -14 6 0 10 -5 10 -11 0 -6 -8 -9 -17
-7 -10 2 -25 24 -35 53 -12 33 -17 40 -14 20 2 -16 7 -40 11 -52 5 -17 3 -25
-10 -29 -24 -10 -34 6 -46 74 l-11 61 -111 -3 -111 -4 -13 -58 c-13 -57 -27
-83 -38 -72 -4 4 17 117 29 153 3 8 116 10 312 5z m-120 -71 c-3 -17 -6 -38
-6 -45 0 -11 -19 -14 -80 -14 -86 0 -89 2 -74 57 5 19 14 23 68 26 33 2 69 4
80 5 16 2 18 -3 12 -29z m48 -41 c6 -40 5 -48 -8 -48 -13 0 -16 12 -16 63 1
69 13 62 24 -15z m130 -73 c4 -13 10 -14 26 -5 14 8 26 8 41 -1 13 -6 40 -9
63 -6 l42 6 0 -34 0 -35 -421 0 c-459 0 -465 1 -451 53 3 14 14 27 23 29 10 2
165 4 344 5 286 3 328 1 333 -12z m616 0 c0 -10 -10 -15 -30 -15 -20 0 -30 5
-30 15 0 10 10 15 30 15 20 0 30 -5 30 -15z m90 0 c0 -10 -11 -15 -35 -15 -24
0 -35 5 -35 15 0 10 11 15 35 15 24 0 35 -5 35 -15z m90 0 c0 -10 -11 -15 -35
-15 -24 0 -35 5 -35 15 0 10 11 15 35 15 24 0 35 -5 35 -15z m90 0 c0 -11 -11
-15 -40 -15 -38 0 -49 8 -33 23 3 4 21 7 40 7 23 0 33 -5 33 -15z m60 -2 c0
-7 -11 -13 -25 -13 -16 0 -23 5 -19 13 2 7 13 13 24 13 11 0 20 -6 20 -13z
m90 2 c0 -11 -11 -15 -40 -15 -38 0 -49 8 -33 23 3 4 21 7 40 7 23 0 33 -5 33
-15z m84 9 c31 -12 16 -24 -29 -24 -33 0 -45 4 -45 15 0 16 43 21 74 9z m-744
-14 c0 -6 -37 -10 -91 -10 -57 0 -88 4 -84 10 3 6 44 10 91 10 49 0 84 -4 84
-10z m110 0 c0 -5 -23 -10 -51 -10 -31 0 -48 4 -44 10 3 6 26 10 51 10 24 0
44 -4 44 -10z m800 0 c0 -5 -20 -10 -45 -10 -25 0 -45 5 -45 10 0 6 20 10 45
10 25 0 45 -4 45 -10z m70 0 c0 -5 -13 -10 -30 -10 -16 0 -30 5 -30 10 0 6 14
10 30 10 17 0 30 -4 30 -10z m80 0 c0 -5 -16 -10 -35 -10 -19 0 -35 5 -35 10
0 6 16 10 35 10 19 0 35 -4 35 -10z m135 -40 c4 -7 -228 -10 -689 -10 -457 0
-696 3 -696 10 0 14 1376 14 1385 0z m-802 -27 c-29 -2 -77 -2 -105 0 -29 2
-6 3 52 3 58 0 81 -1 53 -3z"/>
<path d="M1410 2019 c-63 -10 -140 -25 -170 -34 -30 -9 -66 -17 -80 -17 -14 0
-19 -3 -13 -5 7 -3 -9 -22 -38 -44 -50 -40 -89 -91 -89 -118 0 -8 14 6 31 30
45 63 48 66 59 49 8 -12 10 -11 10 6 0 28 22 46 46 38 14 -4 15 -3 6 4 -13 9
-5 14 76 41 30 11 115 28 177 35 71 9 120 21 110 27 -5 3 -62 -2 -125 -12z"/>
<path d="M1071 1930 c-98 -63 -202 -200 -200 -264 0 -12 11 8 24 43 24 64 55
112 40 61 -4 -14 -13 -36 -20 -50 -7 -14 -19 -50 -26 -80 -13 -51 -14 -52 -20
-25 -4 18 -6 -1 -6 -45 0 -41 3 -66 7 -55 6 16 8 14 13 -13 4 -19 13 -32 21
-32 10 0 13 6 10 15 -4 8 -10 15 -15 15 -5 0 -7 10 -5 23 3 12 10 59 17 105 8
50 17 81 23 79 6 -3 12 6 13 19 4 48 7 54 22 55 9 1 19 1 23 0 3 0 3 12 -2 28
-7 24 -3 32 34 65 22 21 56 48 75 62 48 33 26 29 -28 -6z"/>
<path d="M1982 1800 c13 -22 28 -42 35 -44 6 -3 -2 15 -18 40 -38 55 -47 57
-17 4z"/>
<path d="M2083 1535 c0 -33 2 -45 4 -27 2 18 2 45 0 60 -2 15 -4 0 -4 -33z"/>
<path d="M1246 1298 c-9 -86 -7 -139 3 -113 14 33 24 162 13 169 -5 3 -12 -21
-16 -56z"/>
<path d="M1790 1280 c0 -29 3 -51 6 -48 7 8 8 88 0 95 -3 4 -6 -18 -6 -47z"/>
<path d="M2147 1105 c4 -42 2 -61 -12 -82 l-18 -28 26 24 c31 28 43 75 28 114
-18 45 -30 31 -24 -28z"/>
<path d="M1080 935 c0 -8 -9 -15 -20 -15 -18 0 -20 -7 -20 -86 0 -54 4 -83 10
-79 6 3 10 40 10 81 0 59 3 74 15 74 8 0 15 9 15 20 0 11 -2 20 -5 20 -3 0 -5
-7 -5 -15z"/>
<path d="M900 920 c0 -6 -117 -10 -318 -10 -234 0 -321 -3 -330 -12 -9 -9 -15
-9 -24 0 -21 21 -28 13 -28 -28 0 -22 5 -40 10 -40 6 0 10 7 8 16 -2 10 5 18
14 19 10 2 18 -3 18 -11 0 -9 5 -12 11 -8 6 3 9 15 6 25 -3 11 -1 17 4 13 5
-3 9 0 9 5 0 8 101 11 320 11 249 0 320 3 320 13 0 8 3 9 8 1 10 -16 72 -16
72 0 0 9 -16 14 -50 15 -27 0 -50 -4 -50 -9z"/>
<path d="M1010 837 l0 -97 -35 0 c-34 0 -35 -1 -36 -40 -1 -22 -2 -50 -2 -62
-1 -20 4 -23 43 -26 l45 -3 -3 158 c-4 175 -12 221 -12 70z m0 -172 c0 -8 -10
-16 -22 -16 l-23 -2 23 -4 c32 -6 27 -23 -8 -23 -27 0 -30 3 -30 30 0 27 3 30
30 30 20 0 30 -5 30 -15z"/>
<path d="M175 900 c-8 -13 -3 -80 7 -80 4 0 8 20 8 45 0 45 -4 54 -15 35z"/>
<path d="M290 824 c0 -34 4 -53 10 -49 6 3 7 17 4 30 -7 28 4 68 17 60 5 -4
17 -1 26 4 15 8 11 10 -19 11 l-38 0 0 -56z"/>
<path d="M372 875 c3 -3 123 -6 267 -6 191 0 262 -3 267 -12 4 -7 4 -9 0 -5
-14 12 -35 -15 -24 -29 8 -10 1 -13 -29 -13 -36 0 -39 -2 -41 -30 -1 -16 1
-30 6 -30 4 0 8 -9 9 -20 1 -13 -2 -18 -10 -14 -9 5 -9 4 -1 -6 21 -22 -19
-51 -65 -47 -22 2 -38 0 -35 -4 2 -4 -23 -5 -56 -2 -41 4 -60 2 -60 -6 0 -15
132 -15 147 0 8 8 13 8 17 0 4 -6 21 -11 37 -11 26 0 30 3 27 23 -2 14 2 22
12 22 15 0 16 -32 2 -47 -9 -8 -75 -12 -182 -10 -78 2 -86 4 -86 22 0 11 4 20
8 20 4 0 8 5 8 10 0 6 -10 10 -21 10 -17 0 -20 -5 -17 -23 4 -20 1 -23 -24
-19 -16 3 -28 0 -28 -7 0 -7 -25 -11 -69 -11 -39 0 -72 -4 -75 -9 -3 -4 72 -6
166 -3 123 3 169 1 164 -7 -5 -8 0 -8 18 -1 15 5 26 6 26 0 0 -4 6 -10 13 -13
6 -2 0 -2 -15 0 -14 2 -28 1 -31 -4 -3 -4 22 -9 54 -11 44 -2 63 1 75 12 17
17 8 21 -15 7 -8 -5 -21 -6 -30 -3 -10 4 3 11 34 18 27 7 51 11 54 9 2 -3 -1
-5 -7 -5 -7 0 -12 -6 -12 -14 0 -8 -6 -17 -12 -19 -9 -4 -8 -6 2 -6 21 -1 34
10 48 42 15 35 15 38 0 35 -8 -2 -13 6 -12 19 1 12 -4 19 -10 17 -7 -3 -12 5
-13 16 -1 13 2 18 10 13 8 -4 8 -1 -1 9 -10 13 -10 17 0 20 7 3 19 -2 26 -11
11 -14 11 -13 2 7 -7 15 -7 22 0 22 5 0 10 -5 10 -11 0 -7 7 -8 18 -4 9 4 23
8 29 9 23 4 42 40 43 77 l0 37 -312 1 c-172 1 -310 -1 -306 -4z m602 -22 c7
-17 -1 -33 -16 -33 -6 0 -9 3 -5 6 8 9 -16 33 -27 26 -5 -3 -6 -1 -3 4 9 16
45 14 51 -3z m-28 -62 c-4 -6 -17 -11 -29 -11 -12 0 -32 -1 -44 -1 -13 0 -22
-6 -20 -12 1 -7 -4 -12 -10 -12 -7 0 -13 3 -13 8 0 4 0 14 0 22 0 10 10 15 34
15 18 0 39 7 46 16 12 13 15 13 28 0 8 -8 11 -19 8 -25z"/>
<path d="M360 848 c0 -3 83 -6 185 -5 118 1 185 -2 185 -8 0 -5 4 -4 9 4 5 8
16 11 25 8 9 -4 16 -2 16 4 0 7 -69 9 -210 7 -115 -2 -210 -6 -210 -10z"/>
<path d="M440 811 c25 -3 44 -10 42 -16 -2 -5 -13 -9 -25 -7 -18 2 -19 1 -7
-7 20 -14 26 -14 44 5 24 23 13 30 -46 31 l-53 1 45 -7z"/>
<path d="M520 786 l0 -33 -47 3 c-27 2 -64 5 -83 6 -35 3 -35 3 -36 -39 0 -24
-3 -46 -7 -49 -4 -4 -2 -13 4 -21 13 -15 89 -18 89 -3 0 7 6 7 19 0 28 -14 31
-13 31 15 0 17 5 25 18 25 13 0 14 -2 3 -9 -10 -6 -10 -10 -1 -16 14 -9 19 -4
25 24 2 14 0 19 -7 15 -8 -5 -9 5 -5 32 4 21 7 47 7 58 0 15 3 16 15 6 8 -6
19 -9 25 -5 6 4 10 -11 9 -42 0 -26 -3 -42 -6 -35 -7 17 -23 15 -23 -3 0 -8 9
-15 20 -15 18 0 20 7 20 60 l0 60 -35 0 c-33 0 -35 -2 -35 -34z m-90 -56 c0
-16 -7 -20 -30 -20 -23 0 -30 4 -30 20 0 16 7 20 30 20 23 0 30 -4 30 -20z
m80 -14 c-1 -19 -2 -19 -11 -3 -12 21 -35 22 -43 2 -3 -8 0 -14 6 -12 7 1 13
-10 13 -26 l1 -28 -18 23 c-10 13 -18 34 -18 48 0 24 3 26 35 22 28 -3 35 -8
35 -26z m-80 -46 c0 -5 -16 -10 -35 -10 -19 0 -35 5 -35 10 0 6 16 10 35 10
19 0 35 -4 35 -10z"/>
<path d="M610 745 l0 -75 38 1 c27 1 31 3 12 6 -32 6 -40 19 -40 65 0 44 9 70
21 62 5 -3 9 0 9 5 0 6 -9 11 -20 11 -18 0 -20 -7 -20 -75z"/>
<path d="M694 788 c3 -17 6 -47 6 -67 0 -35 1 -36 40 -36 l40 0 0 65 0 65 -46
2 -46 1 6 -30z m76 -3 c0 -10 -10 -15 -30 -15 -20 0 -30 5 -30 15 0 10 10 15
30 15 20 0 30 -5 30 -15z m-25 -45 c-30 -7 -30 -7 -5 -12 l25 -5 -24 1 c-14 1
-26 7 -29 14 -2 8 7 12 30 11 l33 -1 -30 -8z"/>
<path d="M130 725 c0 -77 8 -102 25 -75 3 6 12 10 18 10 7 0 6 -4 -3 -10 -12
-8 -9 -10 13 -10 24 0 27 3 28 38 1 20 1 44 0 54 -1 9 2 19 7 22 5 3 7 17 4
31 -4 22 -9 25 -48 25 l-44 0 0 -85z m40 0 c0 -30 -4 -55 -10 -55 -5 0 -10 25
-10 55 0 30 5 55 10 55 6 0 10 -25 10 -55z m32 0 c-5 -71 -22 -71 -22 0 0 37
4 55 13 55 8 0 11 -16 9 -55z"/>
<path d="M1084 675 c0 -77 2 -107 3 -67 2 40 2 103 0 140 -2 37 -3 4 -3 -73z"/>
<path d="M251 738 c0 -18 4 -42 9 -53 6 -15 9 -6 9 33 1 28 -3 52 -9 52 -5 0
-10 -15 -9 -32z"/>
<path d="M231 676 c-1 -54 0 -57 17 -45 9 7 6 1 -8 -13 -25 -25 -25 -25 -32
-4 -6 21 -6 21 -7 -1 -1 -13 7 -27 18 -33 27 -14 31 -13 31 10 0 11 7 20 15
20 13 0 14 3 3 23 -7 12 -18 40 -25 62 l-11 40 -1 -59z"/>
<path d="M294 613 c1 -31 5 -39 24 -41 12 -2 22 1 22 7 0 6 5 11 10 11 18 0
11 -30 -7 -32 -10 0 -24 -2 -32 -2 -23 -2 -25 -26 -2 -26 12 0 21 5 21 10 0 6
5 10 11 10 5 0 7 -5 3 -12 -4 -7 -3 -8 4 -4 8 5 12 0 12 -13 0 -22 16 -27 40
-11 13 8 13 11 1 22 -10 10 -12 10 -7 1 4 -7 3 -13 -3 -13 -14 0 -31 34 -23
46 4 5 32 10 62 11 30 1 80 6 110 11 48 8 37 9 -82 10 -76 0 -142 3 -148 7
-15 9 -2 25 15 18 9 -3 15 1 15 11 0 10 -9 16 -24 16 -20 0 -23 -4 -22 -37z"/>
<path d="M899 595 c-10 -26 -18 -34 -34 -33 -11 2 -22 -1 -25 -7 -3 -5 10 -11
28 -13 31 -3 39 7 33 41 -1 5 3 6 8 2 6 -3 8 -13 5 -23 -5 -14 -4 -14 4 -3 6
8 7 22 3 30 -5 9 -6 22 -4 29 3 6 2 12 -1 12 -2 0 -10 -16 -17 -35z"/>
<path d="M256 569 c-15 -9 -16 -13 -5 -20 11 -7 11 -9 1 -9 -7 0 -10 -5 -7
-11 8 -11 45 22 45 41 0 13 -10 12 -34 -1z"/>
<path d="M405 547 c17 -5 33 -15 37 -21 5 -8 8 -7 8 2 0 6 7 12 15 12 8 0 15
4 15 9 0 4 -24 8 -52 8 -49 0 -51 -1 -23 -10z"/>
<path d="M949 548 c-14 -6 -19 -17 -19 -48 l0 -40 60 0 60 0 0 48 0 47 -41 0
c-22 0 -49 -3 -60 -7z m79 -31 c3 -13 -4 -17 -32 -17 -29 0 -36 4 -36 19 0 26
63 24 68 -2z m2 -37 c0 -5 -18 -10 -39 -10 -22 0 -43 5 -46 10 -4 6 12 10 39
10 25 0 46 -4 46 -10z"/>
<path d="M286 503 c8 -8 14 -17 15 -21 2 -23 8 -42 18 -59 9 -16 10 -16 11 -1
0 9 -5 20 -10 23 -17 10 -2 24 20 18 11 -3 27 0 35 7 10 9 15 9 15 1 0 -6 17
-11 39 -11 39 0 51 -11 51 -48 0 -13 -3 -12 -15 5 -10 15 -25 21 -50 21 -31 0
-33 -2 -19 -15 11 -11 18 -12 28 -4 10 8 16 8 25 -3 9 -11 6 -13 -18 -12 -16
1 -33 5 -37 9 -4 4 -17 7 -28 7 -17 0 -18 2 -6 10 13 8 12 10 -2 10 -12 0 -18
-8 -18 -24 0 -18 5 -24 19 -23 11 0 17 5 15 9 -3 4 0 8 5 8 6 0 11 -4 11 -10
0 -5 35 -9 81 -8 77 1 80 1 50 14 -17 7 -31 17 -31 23 0 5 -9 20 -20 33 -11
12 -26 32 -34 42 -13 18 -13 18 -18 -2 -4 -15 -2 -19 8 -15 8 3 14 0 14 -6 0
-14 -27 -15 -35 -1 -9 14 -45 12 -45 -2 0 -7 -8 -1 -17 14 -12 19 -25 26 -44
26 -24 -1 -26 -3 -13 -15z"/>
<path d="M730 426 l0 -55 -106 -3 c-58 -2 -108 -1 -112 2 -4 3 -69 4 -144 2
-113 -3 -138 -6 -138 -18 0 -23 239 -19 256 4 12 16 13 16 19 0 7 -19 45 -25
45 -8 0 6 10 10 23 9 21 0 21 -1 2 -9 -13 -6 7 -9 61 -9 65 -1 83 2 88 15 3 8
10 12 16 9 6 -4 7 -12 3 -18 -4 -7 0 -6 10 2 14 11 20 11 34 0 10 -8 14 -9 10
-2 -4 6 -3 14 2 17 5 4 13 2 16 -4 4 -6 16 -8 27 -4 15 4 18 3 13 -7 -6 -9 -4
-11 7 -6 10 3 15 0 14 -11 -1 -12 -13 -19 -41 -23 -26 -4 -7 -6 55 -7 61 0 88
2 75 8 -19 8 -19 9 2 9 12 1 24 -4 26 -9 3 -6 4 -5 3 2 -1 7 -12 15 -23 18
-12 3 -19 12 -18 22 3 15 -6 17 -66 15 l-69 -2 0 58 0 57 -45 0 -45 0 0 -54z
m80 -36 c0 -5 -16 -10 -35 -10 -19 0 -35 5 -35 10 0 6 16 10 35 10 19 0 35 -4
35 -10z m119 -48 c8 -16 6 -18 -12 -17 -12 1 -23 9 -25 18 -5 23 25 22 37 -1z"/>
<path d="M1107 453 c-10 -9 -8 -75 2 -91 4 -8 7 10 7 43 -1 30 -1 55 -2 55 0
0 -4 -3 -7 -7z"/>
<path d="M600 434 c0 -18 34 -34 72 -33 l43 2 -47 10 c-27 6 -48 14 -48 19 0
4 -4 8 -10 8 -5 0 -10 -3 -10 -6z"/>
<path d="M1060 415 c13 -14 19 -29 15 -36 -6 -8 -12 -4 -21 12 -12 22 -13 18
-14 -40 0 -35 3 -61 8 -57 4 4 7 19 7 33 0 33 22 42 28 11 3 -13 4 4 4 37 -1
56 -3 60 -25 62 l-24 1 22 -23z"/>
<path d="M846 420 c-31 -11 -2 -22 52 -19 26 1 61 -1 79 -5 30 -7 32 -10 36
-59 3 -44 4 -42 4 15 0 64 -1 67 -26 72 -37 7 -123 5 -145 -4z"/>
<path d="M170 355 c0 -8 9 -15 20 -15 11 0 20 7 20 15 0 8 -9 15 -20 15 -11 0
-20 -7 -20 -15z"/>
<path d="M1691 354 c0 -21 4 -48 9 -59 5 -14 7 -4 6 32 0 28 -5 55 -9 59 -4 4
-7 -10 -6 -32z"/>
<path d="M1409 345 c-2 -23 -4 -29 -12 -42 -4 -6 -9 -33 -12 -60 -4 -43 -3
-44 4 -13 16 61 37 110 45 103 4 -4 4 0 0 10 -8 21 -24 22 -25 2z"/>
<path d="M1680 193 c0 -25 3 -43 6 -40 10 10 12 87 3 87 -5 0 -9 -21 -9 -47z"/>
<path d="M56 64 c-9 -8 -16 -17 -16 -20 0 -5 29 1 50 9 22 9 630 13 630 5 0
-5 9 -8 20 -8 11 0 20 7 20 15 0 18 -16 20 -23 3 -4 -10 -6 -10 -6 0 -1 9 -74
12 -330 12 -286 0 -332 -2 -345 -16z"/>
</g>
</svg>
